<?xml version="1.0" standalone="no"?><!DOCTYPE svg PUBLIC "-//W3C//DTD SVG 1.1//EN" "http://www.w3.org/Graphics/SVG/1.1/DTD/svg11.dtd"><svg t="1567001142925" class="icon" viewBox="0 0 1024 1024" version="1.1" xmlns="http://www.w3.org/2000/svg" p-id="9228" xmlns:xlink="http://www.w3.org/1999/xlink" width="200" height="200"><defs><style type="text/css"></style></defs><path d="M779.599687 134.320195 733.85483 134.320195c-12.651135 0-27.253714 18.020422-27.253714 30.671557 0 12.655228 14.602579 35.540448 27.253714 35.540448l25.278733 0c27.253714 0 45.744857 18.495236 45.744857 45.744857l0 495.847112c0 27.249621-18.491143 45.744857-45.744857 45.744857L307.583331 787.869025c-27.248597 0-57.420781-18.495236-57.420781-45.744857L250.16255 246.277056c0-27.249621 18.491143-45.744857 45.744857-45.744857l36.95568 0c12.655228 0 17.520025-22.88522 17.520025-35.540448 0-12.651135-4.864798-30.671557-17.520025-30.671557l-57.421804 0c-64.236 0-91.489714 50.13791-91.489714 102.694917l0 520.707312c0 56.449663 34.06484 96.354512 96.354512 96.354512l494.424716 0c62.293765 0 96.358605-33.093722 96.358605-96.354512L871.089401 237.015112C871.089401 184.458105 838.971913 134.320195 779.599687 134.320195L779.599687 134.320195 779.599687 134.320195zM448.683952 201.979154l159.620417 0c18.491143 0 34.06484-18.492166 34.06484-39.905872 0-21.408589-15.573697-39.904849-35.041074-39.904849L448.683952 122.168434c-19.466354 0-35.035958 18.492166-35.035958 39.904849C413.647995 183.486988 429.217598 201.979154 448.683952 201.979154L448.683952 201.979154 448.683952 201.979154z" p-id="9229"></path><path d="M723.31273 363.108948c0 16.95516-13.744026 30.699186-30.699186 30.699186l-331.551208 0c-16.95516 0-30.699186-13.744026-30.699186-30.699186l0 0c0-16.95516 13.744026-30.699186 30.699186-30.699186l331.551208 0C709.567681 332.409762 723.31273 346.154811 723.31273 363.108948L723.31273 363.108948z" p-id="9230"></path><path d="M723.31273 489.998917c0 16.95516-13.744026 30.699186-30.699186 30.699186l-331.551208 0c-16.95516 0-30.699186-13.744026-30.699186-30.699186l0 0c0-16.95516 13.744026-30.699186 30.699186-30.699186l331.551208 0C709.567681 459.299731 723.31273 473.04478 723.31273 489.998917L723.31273 489.998917z" p-id="9231"></path><path d="M723.31273 628.145254c0 16.95516-13.744026 30.699186-30.699186 30.699186l-331.551208 0c-16.95516 0-30.699186-13.744026-30.699186-30.699186l0 0c0-16.95516 13.744026-30.699186 30.699186-30.699186l331.551208 0C709.567681 597.446068 723.31273 611.191116 723.31273 628.145254L723.31273 628.145254z" p-id="9232"></path></svg>