<?xml version="1.0" standalone="no"?><!DOCTYPE svg PUBLIC "-//W3C//DTD SVG 1.1//EN" "http://www.w3.org/Graphics/SVG/1.1/DTD/svg11.dtd"><svg t="1567001133165" class="icon" viewBox="0 0 1024 1024" version="1.1" xmlns="http://www.w3.org/2000/svg" p-id="9104" xmlns:xlink="http://www.w3.org/1999/xlink" width="200" height="200"><defs><style type="text/css"></style></defs><path d="M512 116.363636A395.636364 395.636364 0 1 1 116.363636 512 395.636364 395.636364 0 0 1 512 116.363636m0-69.818181a465.454545 465.454545 0 1 0 465.454545 465.454545A465.454545 465.454545 0 0 0 512 46.545455z" p-id="9105"></path><path d="M648.843636 375.156364l-51.432727 205.265454a23.272727 23.272727 0 0 1-16.989091 16.989091l-205.265454 51.432727 51.432727-205.265454a23.272727 23.272727 0 0 1 16.989091-16.989091l205.265454-51.432727m64-87.272728h-5.818181l-279.272728 69.818182a93.090909 93.090909 0 0 0-67.723636 67.723637l-69.818182 280.436363a23.272727 23.272727 0 0 0 23.272727 29.090909h5.818182l280.436364-69.818182a93.090909 93.090909 0 0 0 67.723636-67.723636l69.818182-280.436364a23.272727 23.272727 0 0 0-23.272727-29.090909z" p-id="9106"></path><path d="M512 477.090909a34.909091 34.909091 0 1 0 34.909091 34.909091 34.909091 34.909091 0 0 0-34.909091-34.909091z" p-id="9107"></path></svg>