<?xml version="1.0" standalone="no"?><!DOCTYPE svg PUBLIC "-//W3C//DTD SVG 1.1//EN" "http://www.w3.org/Graphics/SVG/1.1/DTD/svg11.dtd"><svg t="1567001500945" class="icon" viewBox="0 0 1024 1024" version="1.1" xmlns="http://www.w3.org/2000/svg" p-id="3361" xmlns:xlink="http://www.w3.org/1999/xlink" width="200" height="200"><defs><style type="text/css"></style></defs><path d="M511.082255 688.480502a343.781264 343.781264 0 1 1 343.781264-343.781264A344.240251 344.240251 0 0 1 511.082255 688.480502z m0-621.009413a275.392201 275.392201 0 1 0 275.392201 275.392201 275.392201 275.392201 0 0 0-275.392201-275.851188z" fill="#515151" p-id="3362"></path><path d="M69.077773 1024H65.864864a33.506051 33.506051 0 0 1-30.293142-36.259973 481.936351 481.936351 0 0 1 298.800538-410.334379 33.506051 33.506051 0 0 1 27.080233 61.045271 413.088301 413.088301 0 0 0-259.327656 355.255939 33.506051 33.506051 0 0 1-33.047064 30.293142zM953.545725 1024a33.506051 33.506051 0 0 1-33.047064-30.293142 413.088301 413.088301 0 0 0-156.055581-288.243837 33.506051 33.506051 0 1 1 45.8987-50.029583 472.756611 472.756611 0 0 1 178.086957 332.306589 33.506051 33.506051 0 0 1-30.293142 36.259973z" fill="#515151" p-id="3363"></path></svg>